<svg id="Capa_1" enable-background="new 0 0 497.389 497.389" height="512" viewBox="0 0 497.389 497.389" width="512" xmlns="http://www.w3.org/2000/svg"><g><path d="m442.98 268.257c-1.716-76.251-64.061-137.537-140.724-137.537-70.614 0-129.079 51.997-139.208 119.791-3.232-.502-6.543-.765-9.915-.765-35.419 0-64.132 28.713-64.132 64.132 0 3.707.332 7.335.936 10.87h-12.305c-38.421 0-69.567 31.146-69.567 69.567 0 38.421 31.146 69.567 69.567 69.567h315.64c57.503 0 104.118-46.615 104.118-104.118-.001-39.501-21.998-73.863-54.41-91.507z" fill="#b2e7f1"/><path d="m442.98 268.257c-1.716-76.251-64.061-137.537-140.724-137.537-8.655 0-17.126.786-25.349 2.281 46.946 9.376 83.801 46.711 92.468 93.91 2.091 11.387 8.23 21.557 17.014 29.1 18.57 15.947 30.333 39.596 30.333 65.993 0 48.023-38.93 86.953-86.953 86.953-1.327 0-263.605 0-263.605 0-24.784 0-45.931-15.525-54.279-37.376-2.522 7.296-3.884 15.134-3.817 23.303.312 38.348 32.128 68.996 70.478 68.996h314.727c57.503 0 104.118-46.615 104.118-104.118-.002-39.499-21.999-73.861-54.411-91.505z" fill="#a7adf1"/><g><path d="m214.357 251.949c-1.431 0-2.884-.309-4.264-.96-4.994-2.358-7.13-8.319-4.771-13.312 5.402-11.438 12.888-21.685 22.251-30.454 4.031-3.776 10.359-3.569 14.135.462 3.775 4.031 3.569 10.359-.462 14.135-7.41 6.94-13.579 15.378-17.839 24.398-1.708 3.613-5.302 5.731-9.05 5.731z" fill="#fff"/></g><g><path d="m261.404 206.985c-3.903 0-7.61-2.298-9.22-6.121-2.144-5.09.245-10.954 5.334-13.098 1.304-.549 2.625-1.074 3.925-1.56 5.172-1.932 10.934.696 12.866 5.87s-.696 10.934-5.87 12.866c-1.044.39-2.106.812-3.158 1.255-1.267.535-2.583.788-3.877.788z" fill="#fff"/></g><g><path d="m366.734 279.97c-3.314 0-6-2.686-6-6v-11.331c0-3.313 2.686-6 6-6 3.313 0 6 2.687 6 6v11.331c0 3.313-2.687 6-6 6z" fill="#95cde6"/></g><g><path d="m413.448 367.474c-3.313 0-6-2.686-6-6v-11.331c0-3.314 2.687-6 6-6 3.314 0 6 2.686 6 6v11.331c0 3.314-2.686 6-6 6z" fill="#95cde6"/></g><g><path d="m374.895 354.724c-3.314 0-6-2.686-6-6v-11.331c0-3.314 2.686-6 6-6s6 2.686 6 6v11.331c0 3.314-2.687 6-6 6z" fill="#95cde6"/></g><g><path d="m300.583 372.95c-3.314 0-6-2.687-6-6v-11.33c0-3.314 2.686-6 6-6 3.313 0 6 2.686 6 6v11.33c0 3.314-2.687 6-6 6z" fill="#95cde6"/></g><path d="m39.262 155.606 8.214 23.098c.352.989 1.048 1.773 1.927 2.169l20.521 9.246c2.899 1.306 2.899 5.926 0 7.232l-20.521 9.246c-.879.396-1.575 1.18-1.927 2.168l-8.214 23.098c-1.16 3.263-5.265 3.263-6.425 0l-8.214-23.098c-.352-.989-1.048-1.773-1.927-2.168l-20.521-9.246c-2.899-1.306-2.899-5.925 0-7.232l20.521-9.246c.879-.396 1.575-1.18 1.927-2.169l8.214-23.098c1.16-3.263 5.264-3.263 6.425 0z" fill="#b2e7f1"/><path d="m164.051 35.323 6.093 17.133c.261.734.777 1.315 1.429 1.609l15.222 6.858c2.151.969 2.151 4.395 0 5.364l-15.222 6.858c-.652.294-1.168.875-1.429 1.609l-6.093 17.133c-.861 2.42-3.905 2.42-4.766 0l-6.093-17.133c-.261-.734-.777-1.315-1.429-1.609l-15.222-6.858c-2.15-.969-2.15-4.395 0-5.364l15.222-6.858c.652-.294 1.168-.875 1.429-1.609l6.093-17.133c.861-2.42 3.905-2.42 4.766 0z" fill="#b2e7f1"/><g fill="#8bb6ef"><ellipse cx="465.101" cy="108.403" rx="17.937" ry="17.937" transform="matrix(.23 -.973 .973 .23 252.74 536.156)"/><circle cx="65.311" cy="86.042" r="7.737"/></g></g></svg>