<svg id="Layer_1" enable-background="new 0 0 512 512" height="512" viewBox="0 0 512 512" width="512" xmlns="http://www.w3.org/2000/svg"><g><path d="m223.498 454.918s42.975-192.901 130.492-192.901 130.492 192.901 130.492 192.901z" fill="#09a76d"/><path d="m353.99 262.018c-5.316 0-10.465.717-15.453 2.054 77.125 20.673 115.039 190.847 115.039 190.847h30.905c0-.001-42.974-192.901-130.491-192.901z" fill="#02905d"/><circle cx="396.943" cy="81.673" fill="#ffd15b" r="38.117"/><path d="m396.943 43.556c-5.503 0-10.728 1.175-15.453 3.274 13.349 5.93 22.664 19.294 22.664 34.843 0 15.548-9.315 28.913-22.664 34.843 4.724 2.099 9.95 3.274 15.453 3.274 21.051 0 38.117-17.065 38.117-38.117-.001-21.051-17.066-38.117-38.117-38.117z" fill="#ffc344"/><g fill="#ffc344"><path d="m396.942 0c-4.143 0-7.5 3.358-7.5 7.5v10.302c0 4.142 3.357 7.5 7.5 7.5s7.5-3.358 7.5-7.5v-10.302c0-4.142-3.357-7.5-7.5-7.5z"/><path d="m442.106 44.009c1.919 0 3.839-.732 5.304-2.197l7.284-7.285c2.929-2.929 2.929-7.678-.001-10.607-2.928-2.929-7.677-2.928-10.606 0l-7.284 7.285c-2.929 2.929-2.929 7.678.001 10.607 1.464 1.465 3.384 2.197 5.302 2.197z"/><path d="m471.116 74.173h-10.303c-4.143 0-7.5 3.358-7.5 7.5s3.357 7.5 7.5 7.5h10.303c4.143 0 7.5-3.358 7.5-7.5s-3.357-7.5-7.5-7.5z"/><path d="m447.41 121.534c-2.93-2.929-7.678-2.929-10.607 0s-2.929 7.678 0 10.606l7.284 7.284c1.465 1.464 3.385 2.197 5.304 2.197s3.839-.732 5.304-2.197c2.929-2.929 2.929-7.678 0-10.606z"/><path d="m349.797 23.921c-2.928-2.929-7.677-2.928-10.606 0-2.929 2.929-2.929 7.678.001 10.607l7.285 7.285c1.464 1.464 3.384 2.196 5.303 2.196s3.839-.732 5.304-2.197c2.929-2.929 2.929-7.678-.001-10.607z"/></g><path d="m29.639 454.918s54.623-245.183 165.859-245.183 165.859 245.183 165.859 245.183z" fill="#57be92"/><path d="m195.498 209.735c-5.279 0-10.429.555-15.453 1.607 100.844 21.113 150.406 243.576 150.406 243.576h30.905c.002 0-54.621-245.183-165.858-245.183z" fill="#22b37f"/><path d="m68.266 336.025c6.458 5.94 13.08 11.607 21.069 15.081 17.752 7.72 38.667 2.864 55.774-6.195s31.857-22.005 48.564-31.782c16.707-9.778 36.799-16.363 55.387-10.961 8.816 2.562 16.647 7.63 24.805 11.84 12.989 6.703 28.751 11.047 42.526 8.014-27.517-58.461-67.741-114.44-120.892-114.44-57.389-.001-99.709 65.26-127.233 128.443z" fill="#97da7b"/><g><path d="m195.498 207.581c-5.282 0-10.436.557-15.463 1.61 44.521 9.316 79.046 57.868 103.726 109.209 10.639 3.981 22.203 5.916 32.63 3.621-27.518-58.461-67.742-114.44-120.893-114.44z" fill="#80d261"/></g><g><path d="m498.452 472.417c0 3.006-.299 5.94-.876 8.771h-191.253c0-19.425 15.762-35.166 35.191-35.166 3.317 0 6.521.453 9.56 1.307-.309-2.141-.474-4.334-.474-6.568 0-24.892 20.192-45.079 45.112-45.079 21.562 0 39.59 15.122 44.04 35.33 4.605-1.637 9.56-2.532 14.732-2.532 24.281.001 43.968 19.673 43.968 43.937z" fill="#97da7b"/><path d="m454.484 428.481c-5.172 0-10.127.896-14.732 2.532-4.45-20.208-22.479-35.33-44.04-35.33-5.432 0-10.639.96-15.462 2.719 11.138 4.057 20.228 12.371 25.287 22.978 2.404 5.041 7.83 7.932 13.388 7.345 2.491-.263 5.046-.317 7.647-.145 22.608 1.501 40.559 20.379 40.967 43.016.06 3.293-.239 6.503-.868 9.591h30.905c.577-2.831.876-5.765.876-8.771 0-24.263-19.687-43.935-43.968-43.935z" fill="#80d261"/><path d="m332.069 474.234c0 2.369-.196 4.698-.556 6.954h-216.586c0-19.965 16.184-36.159 36.159-36.159 7.026 0 13.578 2.019 19.131 5.491 1.154-12.98 7.139-24.549 16.163-32.925-11.157-3.328-19.285-13.66-19.285-25.888 0-14.938 12.105-27.042 27.032-27.042 14.938 0 27.042 12.105 27.042 27.042 0 4.44-1.092 8.623-2.998 12.321.989-.062 1.988-.093 2.998-.093 21.572 0 40.012 13.361 47.543 32.255 6.037-3.224 12.929-5.058 20.253-5.058 23.809 0 43.104 19.295 43.104 43.102z" fill="#97da7b"/><g fill="#80d261"><path d="m190.265 391.707c0 3.416-.646 6.68-1.813 9.688-.48 1.237.456 2.541 1.782 2.54h.03c20.031 0 37.361 11.52 45.764 28.293 1.05 2.095 3.544 3 5.713 2.11 5.032-2.065 10.541-3.206 16.319-3.206 3.003 0 5.933.309 8.762.893-8.442-16.66-25.704-28.089-45.652-28.089-1.01 0-2.009.031-2.998.093 2.131-4.136 3.245-8.878 2.951-13.908-.839-14.381-13.17-25.751-27.572-25.449-5.525.116-10.639 1.895-14.872 4.851 7.002 4.885 11.586 12.995 11.586 22.184z"/><path d="m288.966 431.132c-5.448 0-10.655 1.018-15.451 2.865 16.169 6.213 27.648 21.879 27.648 40.238 0 2.369-.196 4.698-.556 6.954h30.905c.361-2.256.556-4.584.556-6.954.001-23.808-19.294-43.103-43.102-43.103z"/></g><path d="m13.548 472.417c0 3.006.299 5.94.876 8.771h191.253c0-19.425-15.762-35.166-35.191-35.166-3.317 0-6.521.453-9.56 1.307.309-2.141.474-4.334.474-6.568 0-24.892-20.192-45.079-45.112-45.079-21.562 0-39.59 15.122-44.04 35.33-4.605-1.637-9.56-2.532-14.732-2.532-24.281.001-43.968 19.673-43.968 43.937z" fill="#97da7b"/><path d="m170.486 446.022c-3.317 0-6.521.453-9.56 1.307.309-2.141.474-4.334.474-6.568 0-24.892-20.192-45.079-45.112-45.079-5.428 0-10.63.96-15.45 2.716 17.304 6.306 29.656 22.895 29.656 42.363v.135c-.009 3.153 2.667 5.562 5.809 5.275 1.078-.099 2.172-.149 3.277-.149 19.429 0 35.191 15.74 35.191 35.166h30.905c.001-19.425-15.761-35.166-35.19-35.166z" fill="#80d261"/></g><path d="m495.517 512h-479.034c-9.103 0-16.483-7.38-16.483-16.483v-12.362c0-2.276 1.845-4.121 4.121-4.121h503.759c2.276 0 4.121 1.845 4.121 4.121v12.362c-.001 9.103-7.381 16.483-16.484 16.483z" fill="#ae6c6c"/><path d="m481.095 479.034v16.483c0 9.103-7.38 16.483-16.483 16.483h30.905c9.103 0 16.483-7.38 16.483-16.483v-12.362c0-2.276-1.845-4.121-4.121-4.121z" fill="#9b5e5e"/><path d="m424.362 134.605h-259.607c-1.895 0-3.351-1.697-3.051-3.568 2.184-13.593 13.968-23.975 28.183-23.975 1.602 0 3.184.144 4.714.401 2.978-18.023 18.618-31.774 37.483-31.774 4.159 0 8.154.678 11.892 1.91 3.132-22.541 22.469-39.907 45.873-39.907 25.591 0 46.325 20.744 46.325 46.336 0 1.92-.123 3.81-.349 5.669 5.361-3.584 11.81-5.669 18.752-5.669 15.846 0 29.145 10.896 32.821 25.602 3.605-1.643 7.61-2.567 11.83-2.567 14.215 0 25.999 10.382 28.183 23.975.302 1.87-1.155 3.567-3.049 3.567z" fill="#eaf9fa"/><path d="m427.412 131.038c-2.184-13.593-13.968-23.975-28.183-23.975-4.221 0-8.226.924-11.83 2.567-3.677-14.706-16.975-25.602-32.821-25.602-6.942 0-13.391 2.085-18.752 5.669.226-1.859.349-3.748.349-5.669 0-25.591-20.734-46.336-46.325-46.336-9.101 0-17.58 2.635-24.737 7.169 18.837 5.88 32.504 23.461 32.504 44.238v.088c-.005 2.335 2.37 3.85 4.499 2.89 4.239-1.914 8.946-2.978 13.904-2.978 14.72 0 27.242 9.402 31.894 22.527.565 1.593 2.304 2.436 3.911 1.911 2.785-.909 5.758-1.404 8.846-1.404 13.685 0 25.113 9.624 27.895 22.471h35.796c1.894.001 3.351-1.696 3.05-3.566z" fill="#dcf5f8"/></g></svg>